<svg width="1em" height="0.9em" viewBox="0 0 30 27" fill="none" xmlns="http://www.w3.org/2000/svg">
  <path fill-rule="evenodd" clip-rule="evenodd"
    d="M14.5202 0.242552C13.7255 0.407885 12.8322 1.17189 12.1535 2.26655C11.6695 3.04789 0.977517 21.5599 0.754851 22.0012C0.282851 22.9426 0.105517 23.8146 0.248184 24.4999C0.517517 25.7892 1.55485 26.4852 3.43085 26.6359C4.41352 26.7146 25.5869 26.7146 26.5695 26.6359C28.1229 26.5119 29.0788 26.0266 29.5242 25.1359C29.9655 24.2532 29.8775 23.2679 29.2428 21.9999C28.9002 21.3146 18.1189 2.69588 17.6869 2.04122C17.1055 1.16255 16.3575 0.506552 15.7255 0.318552C15.3735 0.214552 14.8215 0.178552 14.5202 0.242552ZM15.1949 3.13322C15.2789 3.22922 15.4229 3.42789 15.5149 3.57322C15.8349 4.07989 26.6455 22.7746 26.8509 23.1786C26.9642 23.4012 27.0629 23.6506 27.0695 23.7346C27.0788 23.8692 27.0562 23.8919 26.8668 23.9426C26.5669 24.0226 3.43352 24.0226 3.13352 23.9426C2.94152 23.8919 2.92152 23.8692 2.93085 23.7292C2.93752 23.6439 3.03485 23.3932 3.14952 23.1732C3.36685 22.7546 14.1922 4.03722 14.4855 3.57322C14.6762 3.27055 14.9375 2.95989 15.0002 2.95989C15.0229 2.95989 15.1109 3.03855 15.1949 3.13322ZM14.5322 8.71855C14.2562 8.78389 13.9455 9.02122 13.8149 9.26655L13.6935 9.49322L13.6789 12.5479C13.6682 14.5226 13.6829 15.6746 13.7189 15.8066C13.8002 16.1106 13.9895 16.3572 14.2562 16.5066C14.4642 16.6226 14.5575 16.6399 15.0002 16.6386C15.6735 16.6359 15.9535 16.4986 16.1922 16.0532C16.3055 15.8426 16.3069 15.8092 16.3069 12.6666V9.49322L16.1882 9.27055C16.1229 9.14922 15.9949 8.99589 15.9042 8.93189C15.5762 8.69855 14.9989 8.60788 14.5322 8.71855ZM14.5322 19.3826C14.0175 19.5146 13.7189 19.9172 13.6789 20.5332C13.6375 21.1746 13.8255 21.5986 14.2562 21.8399C14.4629 21.9559 14.5589 21.9732 15.0002 21.9732C15.4162 21.9732 15.5442 21.9519 15.7202 21.8586C16.1549 21.6239 16.3335 21.2786 16.3335 20.6666C16.3335 19.8079 15.9495 19.3959 15.1109 19.3559C14.8882 19.3452 14.6282 19.3572 14.5322 19.3826Z"
    fill="#F3B911" />
</svg>
