<svg width="0" height="0" style="display: none">

<symbol id="discord" viewBox="0 0 24 24" xmlns="http://www.w3.org/2000/svg">
  <path
    d="M10.13831,10.62982h-.00013a1.05288,1.05288,0,1,0,.00013,0Zm3.75427,0a1.14582,1.14582,0,1,0,1.04907,1.14166A1.09586,1.09586,0,0,0,13.89258,10.62982Zm4.99878-8.6297H5.10864A2.11364,2.11364,0,0,0,3,4.119V18.02527A2.11368,2.11368,0,0,0,5.10864,20.1441H16.77258l-.54516-1.90289,1.31653,1.224,1.24462,1.152L21,22.57153V4.119A2.11364,2.11364,0,0,0,18.89136,2.00012ZM14.92114,15.43323v.00006s-.37036-.44232-.67895-.83319a3.2459,3.2459,0,0,0,1.86181-1.224,5.87837,5.87837,0,0,1-1.18286.60681,6.76974,6.76974,0,0,1-1.49145.44232,7.206,7.206,0,0,1-2.66394-.01025,8.64456,8.64456,0,0,1-1.51209-.44226,6.03735,6.03735,0,0,1-.75085-.34973c-.03089-.02063-.06165-.03089-.09253-.05146a.14171.14171,0,0,1-.04114-.03082c-.18506-.10284-.28809-.17487-.28809-.17487A3.19975,3.19975,0,0,0,9.8811,14.57953c-.30847.39093-.68908.8537-.68908.8537a3.72892,3.72892,0,0,1-3.13709-1.56342A13.775,13.775,0,0,1,7.536,7.87323a5.08641,5.08641,0,0,1,2.89026-1.08l.10278.12348A6.93762,6.93762,0,0,0,7.824,8.2641s.22632-.12341.60682-.29828a7.722,7.722,0,0,1,2.335-.64795,1.00465,1.00465,0,0,1,.17492-.02063,8.702,8.702,0,0,1,2.07764-.02051,8.384,8.384,0,0,1,3.096.98737,6.84576,6.84576,0,0,0-2.561-1.30628l.14392-.16449a5.08575,5.08575,0,0,1,2.89026,1.08,13.77368,13.77368,0,0,1,1.4812,5.99652A3.75972,3.75972,0,0,1,14.92114,15.43323Z"
    fill="#6563ff" />
</symbol>

<symbol id="github" xmlns="http://www.w3.org/2000/svg" width="25" height="24"><path fill="inherit" d="M12.5 0C5.594 0 0 5.51 0 12.305c0 5.437 3.581 10.048 8.547 11.674.625.116.854-.265.854-.592 0-.292-.01-1.066-.016-2.092-3.477.742-4.21-1.65-4.21-1.65-.569-1.42-1.39-1.8-1.39-1.8-1.133-.764.087-.748.087-.748 1.255.086 1.914 1.268 1.914 1.268 1.115 1.881 2.927 1.338 3.641 1.024.113-.797.434-1.338.792-1.646-2.776-.308-5.694-1.366-5.694-6.08 0-1.343.484-2.44 1.286-3.302-.14-.31-.562-1.562.11-3.256 0 0 1.047-.33 3.437 1.261 1-.273 2.063-.409 3.125-.415 1.063.006 2.125.142 3.125.415 2.375-1.591 3.422-1.261 3.422-1.261.672 1.694.25 2.945.125 3.256.797.861 1.281 1.959 1.281 3.302 0 4.727-2.921 5.767-5.703 6.07.438.369.844 1.123.844 2.276 0 1.647-.016 2.97-.016 3.37 0 .322.22.707.86.584 5-1.615 8.579-6.23 8.579-11.658C25 5.509 19.403 0 12.5 0z"/></symbol>
<symbol id="linkedin" height="100%" style="fill-rule:evenodd;clip-rule:evenodd;stroke-linejoin:round;stroke-miterlimit:2;" version="1.1" viewBox="0 0 512 512" width="100%" xml:space="preserve" xmlns="http://www.w3.org/2000/svg" xmlns:serif="http://www.serif.com/" xmlns:xlink="http://www.w3.org/1999/xlink"><g ><path d="M512,64c0,-35.323 -28.677,-64 -64,-64l-384,0c-35.323,0 -64,28.677 -64,64l0,384c0,35.323 28.677,64 64,64l384,0c35.323,0 64,-28.677 64,-64l0,-384Z" id="background" style="fill:#2867b2;"/><g id="shapes"><rect height="257.962" id="rect11" style="fill:#fff;" width="85.76" x="61.053" y="178.667"/><path d="M104.512,54.28c-29.341,0 -48.512,19.29 -48.512,44.573c0,24.752 18.588,44.574 47.377,44.574l0.554,0c29.903,0 48.516,-19.822 48.516,-44.574c-0.555,-25.283 -18.611,-44.573 -47.935,-44.573Z" id="path13-0" style="fill:#fff;fill-rule:nonzero;"/><path d="M357.278,172.601c-45.49,0 -65.866,25.017 -77.276,42.589l0,-36.523l-85.738,0c1.137,24.197 0,257.961 0,257.961l85.737,0l0,-144.064c0,-7.711 0.554,-15.42 2.827,-20.931c6.188,-15.4 20.305,-31.352 43.993,-31.352c31.012,0 43.436,23.664 43.436,58.327l0,138.02l85.741,0l0,-147.93c0,-79.237 -42.305,-116.097 -98.72,-116.097Z" id="path15" style="fill:#fff;fill-rule:nonzero;"/></g></g></symbol>

<symbol id="twitch" height="512px" style="enable-background:new 0 0 512 512;" version="1.1" viewBox="0 0 512 512" width="512px" xml:space="preserve" xmlns="http://www.w3.org/2000/svg" xmlns:xlink="http://www.w3.org/1999/xlink"><g ><g><polygon points="67.175,26.001 36.269,104.961 36.269,427.68 146.135,427.68 146.135,485.999     207.948,485.999 266.269,427.68 355.598,427.68 475.731,307.544 475.731,26.001   " style="fill:#6441A5;"/><polygon points="434.558,286.905 365.866,355.598 256.001,355.598 197.679,413.917 197.679,355.598     104.96,355.598 104.96,67.176 434.558,67.176   " style="fill:#FFFFFF;"/><rect height="120.03" style="fill:#6441A5;" width="41.174" x="324.692" y="146.134"/><rect height="120.03" style="fill:#6441A5;" width="41.177" x="214.824" y="146.134"/></g></g><g id="Layer_1"/></symbol>

<symbol id="twitterx" xmlns="http://www.w3.org/2000/svg"  viewBox="0 0 50 50" width="50px" height="50px"><path d="M 11 4 C 7.134 4 4 7.134 4 11 L 4 39 C 4 42.866 7.134 46 11 46 L 39 46 C 42.866 46 46 42.866 46 39 L 46 11 C 46 7.134 42.866 4 39 4 L 11 4 z M 13.085938 13 L 21.023438 13 L 26.660156 21.009766 L 33.5 13 L 36 13 L 27.789062 22.613281 L 37.914062 37 L 29.978516 37 L 23.4375 27.707031 L 15.5 37 L 13 37 L 22.308594 26.103516 L 13.085938 13 z M 16.914062 15 L 31.021484 35 L 34.085938 35 L 19.978516 15 L 16.914062 15 z"/></symbol>
<symbol id="youtube" height="100%" style="fill-rule:evenodd;clip-rule:evenodd;stroke-linejoin:round;stroke-miterlimit:2;" version="1.1" viewBox="0 0 512 512" width="100%" xml:space="preserve" xmlns="http://www.w3.org/2000/svg" xmlns:serif="http://www.serif.com/" xmlns:xlink="http://www.w3.org/1999/xlink"><g><path d="M501.299,132.766c-5.888,-22.03 -23.234,-39.377 -45.264,-45.264c-39.932,-10.701 -200.037,-10.701 -200.037,-10.701c0,0 -160.105,0 -200.038,10.701c-22.025,5.887 -39.376,23.234 -45.264,45.264c-10.696,39.928 -10.696,123.236 -10.696,123.236c0,0 0,83.308 10.696,123.232c5.888,22.03 23.239,39.381 45.264,45.268c39.933,10.697 200.038,10.697 200.038,10.697c0,0 160.105,0 200.037,-10.697c22.03,-5.887 39.376,-23.238 45.264,-45.268c10.701,-39.924 10.701,-123.232 10.701,-123.232c0,0 0,-83.308 -10.701,-123.236Z" style="fill:#ed1f24;fill-rule:nonzero;"/><path d="M204.796,332.803l133.018,-76.801l-133.018,-76.801l0,153.602Z" style="fill:#fff;fill-rule:nonzero;"/></g></symbol>

</svg>